<svg xmlns="http://www.w3.org/2000/svg" xmlns:xlink="http://www.w3.org/1999/xlink"><symbol id="facebook-logo" viewBox="0 0 47 48"><g fill="none">
<rect width="47" height="48" fill="#81B3D2"/>
<path d="M25.3 16.4C26.1 16.4 26.9 16.4 27.7 16.4C27.7 15.3 27.7 14.2 27.7 13C26.7 13 25.8 13 24.8 13C21.7 13.2 20.5 15.4 20.9 19.1H19V22.6H21C21 25.7 21 28.8 21 31.9C22.3 31.9 23.6 31.9 24.8 31.9C24.8 28.8 24.8 25.7 24.8 22.6H27.7V19.1H24.8C24.8 18.1 24.8 16.7 25.3 16.4Z" fill="white"/>
</g></symbol><symbol id="htmlacademy-logo" viewBox="0 0 27 35"><g fill="none">
<path d="M13.6 0H13.5L0 1.4V26.1L13.5 34.1L26.9 26.1V1.4L13.6 0ZM25 12.1L13.5 5.3V5.2H13.4L13.3 5.1V5.2L1.9 12.1V3.1L13.4 1.9L25 3.1V12.1ZM13.4 6.8L24.9 13.5L20.4 16.1L13.3 11.9V13.3L19.2 16.8L18.3 17.3L13.3 14.3V15.7L17.1 18L16.3 18.5L13.3 16.7V18.1L15.2 19.2L13.4 20.3L2 13.6L13.4 6.8ZM1.9 15.1L13.3 21.9V22.9L5.4 18.2V19.6L13.4 24.4V25.5L5.4 20.8V22.2L13.4 27L21.5 22.1V16.9L24.9 14.9V24.9L13.4 31.8L1.9 25V15.1Z" fill="black"/>
</g></symbol><symbol id="like-icon" viewBox="0 0 23 21"><g fill="">
  <path opacity="0.3" d="M12.9636 3.78L12.3364 6.825L11.7091 9.45H14.3227H20.8045V11.55C20.8045 11.55 20.8045 11.55 20.8045 11.655L17.7727 18.9H8.36364V8.4L12.9636 3.78ZM2.09091 10.5V18.9V10.5ZM13.8 0L6.9 6.93C6.48182 7.245 6.27273 7.77 6.27273 8.4V18.9C6.27273 20.055 7.21364 21 8.36364 21H17.7727C18.6091 21 19.3409 20.475 19.6545 19.74L22.7909 12.285C22.8955 12.075 22.8955 11.76 22.8955 11.55V9.45H23C23 8.295 22.0591 7.35 20.9091 7.35H14.3227L15.3682 2.52V2.205C15.3682 1.785 15.1591 1.365 14.95 1.05L13.8 0ZM4.18182 8.4H0V21H4.18182V8.4Z" fill=""/>
</g></symbol><symbol id="mail" viewBox="0 0 16 12"><g fill="none">
<path d="M8 8C7.7 8 7.5 7.9 7 7.7L0 4V11C0 11.5 0.5 12 1 12H15C15.5 12 16 11.5 16 11V4L9 7.7C8.5 7.9 8.3 8 8 8ZM15 0H1C0.5 0 0 0.5 0 1V1.8L8 6L16 1.8V1C16 0.5 15.5 0 15 0Z" fill="black"/>
</g></symbol><symbol id="phone" viewBox="0 0 18 18"><g fill="none">
<path d="M3.6 7.8C5 10.6 7.4 12.9 10.2 14.4L12.4 12.2C12.7 11.9 13.1 11.8 13.4 12C14.5 12.4 15.7 12.6 17 12.6C17.6 12.6 18 13 18 13.6V17C18 17.6 17.6 18 17 18C7.6 18 0 10.4 0 1C0 0.4 0.4 0 1 0H4.5C5.1 0 5.5 0.4 5.5 1C5.5 2.2 5.7 3.4 6.1 4.6C6.2 4.9 6.1 5.3 5.9 5.6L3.6 7.8Z" fill="#010101"/>
</g></symbol><symbol id="twitter-logo" viewBox="0 0 46 48"><g fill="none">
<rect width="46" height="48" fill="#81B3D2"/>
<path d="M25.3 16.1667C27 15.6667 28.4 16.3667 29 17.2667C29.7 17.0667 30.4 16.7667 31.1 16.5667C31.1 17.3667 30.6 18.0667 30.2 18.2667C30.9 18.4667 31.5 17.7667 31.5 17.7667C31.3 18.7667 30.5 19.4667 29.9 19.7667C29.7 26.3667 26.6 30.7667 19.5 30.5667C19 30.5667 19.6 30.5667 19 30.5667C18.6 30.5667 14.7 30.1667 14 28.7667C16.3 28.9667 18 28.3667 18.8 27.6667C17.8 27.3667 16 27.1667 15.7 24.7667C16.1 24.8667 16.3 24.9667 17 24.8667C15.8 24.0667 14.4 23.3667 14.5 21.1667C14.8 21.4667 15.6 21.6667 15.9 21.6667C15.2 21.4667 13.9 18.3667 15 16.8667C16.9 18.6667 18.8 20.3667 22.4 20.5667C22.5 18.2667 23.5 16.7667 25.3 16.1667Z" fill="white"/>
</g></symbol><symbol id="youtube-logo" viewBox="0 0 46 48"><g fill="none">
<rect width="46" height="48" fill="#81B3D2"/>
<path d="M30.1 17H15.8C14.3 17 13 18.3 13 19.8V28.1C13 29.7 14.3 31 15.8 31H30.1C31.7 31 32.9 29.7 32.9 28.2V19.8C33 18.3 31.7 17 30.1 17ZM20 27.4V20.6L26.8 24L20 27.4Z" fill="white"/>
</g></symbol></svg>